<svg id="logosandtypes_com" xmlns="http://www.w3.org/2000/svg" viewBox="0 0 150 150.2">
  <rect width="150" height="150.2" fill="none"/>
  <path d="M124 36.1c-2.7-2-40.2-22.4-40.6-22.6-5.4-2.8-11.5-2.9-16.9 0C61.8 16 36.2 29.9 27.4 35 17 41 17 47.3 17.1 54.6v38.1c0 12.4 6.2 16.6 8 17.5 2.6 1.6 36 21.7 41.3 24.7 3.4 1.9 6.8 2.9 10.1 2.9 2.8 0 5.7-.7 8.4-2.1 6.7-2.7 9.3-6 10.2-8.5.3-.7.6-1.4.6-2.1V98.8l7.8-4.5v20.6c0 1.6.9 3.2 2.3 4 1.4.8 3.2.9 4.5.1.3-.2 9.7-5.3 14.9-8.7 7.1-4.6 7.8-12.3 7.8-19.9V52.7c-.3-10.3-4.9-13.6-9-16.6zm-4 66.3c-1.5 1-3.5 2.1-5.4 3.3 0 0-1.9 1.2-2.1-.8V61.5c0-2.5-2-4.6-4.6-4.6-2.6 0-4.6 2-4.6 4.6v22.2c-.1 0-7.8 4.5-7.8 4.5V71c0-2.5-2-4.6-4.6-4.6s-4.6 2-4.6 4.6v53.2c-.7.9-5.5 3.4-5.7 3.5-2.3 1.2-5.1 2-9.7-.6-5.2-2.9-41.4-24.8-41.5-24.9-.6-.3-3.1-2.6-3.1-9.4V54.6c-.3-6.8-.3-8.3 5.6-11.6 8.7-5 34.2-18.8 38.8-21.4 3.5-1.9 6.7-.8 8.1 0 .5.2 38.1 20.6 39.6 21.7 3.5 2.5 4.9 3.7 4.9 9.3v37.6h.2c0 7.5-.9 10.4-3.5 12.2z" fill="#808080"/>
</svg>